<svg xmlns="http://www.w3.org/2000/svg" viewBox="0 0 64 64">
  <defs/>
  <path fill="#efeff4" d="M64 14.454v41.789H0V14.454l3.75-3.787h56.5z"/>
  <path fill="#dadae5" d="M64 14.454v41.789H32V10.667h28.25z"/>
  <path fill="#474f54" d="M0 0h64v15.515H0z"/>
  <path fill="#32393f" d="M32 0h32v15.515H32z"/>
  <path fill="#ff637b" d="M7.758 5.818h3.685v3.879H7.758zm7.37 0h3.685v3.879h-3.685zm7.369 0h3.685v3.879h-3.685zm23.079 36.428V64H34.355v-3.71h-3.74V64H19.394V42.246l11.37-9.276h3.1z"/>
  <path fill="#dadae5" d="M11.636 22.303h41.7v3.879h-41.7z"/>
  <path fill="#c9c9d3" d="M32 22.303h20.364v3.879H32z"/>
  <path fill="#e63950" d="M45.576 42.246V64H33.939v-3.71H32V32.97h1.435z"/>
  <path fill="#efeff4" d="M30.061 45.576h3.879v3.879h-3.879z"/>
  <path fill="#dadae5" d="M32 45.576h1.939v3.879H32z"/>
  <path fill="#676e74" d="M50.424 45.78l-2.452 2.706-15.488-13.525-15.487 13.524-2.452-2.705 17.939-15.719z"/>
  <path fill="#474f54" d="M32 30.061L50.424 45.78l-2.518 2.706L32 34.961z"/>
</svg>