<svg xmlns="http://www.w3.org/2000/svg" viewBox="0 0 64 64">
  <defs/>
  <path fill="#676e74" d="M26.375 52.625h11.25V64h-11.25z"/>
  <path fill="#333637" d="M32 52.625h5.625V64H32z"/>
  <path fill="#4c545a" d="M22.625 47h18.75v9.375h-18.75z"/>
  <path fill="#52585c" d="M32 47h9.375v9.375H32z"/>
  <path fill="#ffda2d" d="M45.012 36.725a9.637 9.637 0 00-3.637 7.425V47h-18.75v-2.85a9.039 9.039 0 00-3.3-7.125 20.64 20.64 0 01-.337-32.288A20.707 20.707 0 0132 0a22.127 22.127 0 014.425.45 20.694 20.694 0 0115.9 16.663 20.484 20.484 0 01-7.313 19.612z"/>
  <path fill="#fdbf00" d="M45.012 36.725a9.637 9.637 0 00-3.637 7.425V47H32V0a22.127 22.127 0 014.425.45 20.694 20.694 0 0115.9 16.663 20.484 20.484 0 01-7.313 19.612z"/>
  <path fill="#676e74" d="M18.875 45.125h26.25v3.75h-26.25z"/>
  <path fill="#ff9100" d="M39.956 10.143l2.651 2.651-3.979 3.979-2.651-2.651z"/>
  <path fill="#fdbf00" d="M25.372 24.727l2.651 2.651-3.979 3.979-2.651-2.651zM30.125 28.25h3.75v5.625h-3.75z"/>
  <path fill="#ff9100" d="M38.628 24.727l3.979 3.979-2.651 2.651-3.979-3.979zM39.5 18.875h5.625v3.75H39.5z"/>
  <path fill="#fdbf00" d="M24.044 10.143l3.979 3.979-2.651 2.651-3.979-3.979zM18.875 18.875H24.5v3.75h-5.625zM30.125 7.625h3.75v5.625h-3.75z"/>
  <path fill="#ffda2d" d="M0 18.875h7.625v3.75H0zM6.585 14.81l-5.75-3.75 2.08-3.12 5.75 3.75zM2.915 33.56l-2.08-3.12 5.75-3.75 2.08 3.12z"/>
  <path fill="#fdbf00" d="M56.375 18.875H64v3.75h-7.625zM61.085 33.56l-5.75-3.75 2.08-3.12 5.75 3.75zM57.415 14.81l-2.08-3.12 5.75-3.75 2.08 3.12z"/>
  <path fill="#ff9100" d="M32 7.625h1.875v5.625H32zM32 28.25h1.875v5.625H32z"/>
  <path fill="#333637" d="M32 45.125h13.125v3.75H32z"/>
  <path fill="#fdbf00" d="M32 11.375a9.375 9.375 0 109.375 9.375A9.379 9.379 0 0032 11.375z"/>
  <path fill="#ff9100" d="M32 30.125v-18.75a9.379 9.379 0 019.375 9.375A9.379 9.379 0 0132 30.125z"/>
  <path fill="#ffda2d" d="M30.125 18.875h3.75v3.75h-3.75z"/>
  <path fill="#fdbf00" d="M32 18.875h1.875v3.75H32z"/>
</svg>