<svg xmlns="http://www.w3.org/2000/svg" viewBox="0 0 64 64">
  <defs/>
  <path fill="#676e74" d="M56.842 7.158a24.356 24.356 0 00-37.953 30l-2.513 2.552-1.356 6.145 4.214 4.214 5.092-2.408 2.513-2.55a24.356 24.356 0 0030-37.953z"/>
  <path fill="#474f54" d="M24.327 47.658l2.513-2.55a24.356 24.356 0 0030.002-37.95L16.583 47.417l2.651 2.652z"/>
  <path fill="#64e1dc" d="M54.212 9.788a20.626 20.626 0 106.042 14.585 20.56 20.56 0 00-6.042-14.585z"/>
  <path fill="#00c8c8" d="M60.254 24.372a20.56 20.56 0 00-6.042-14.585l-29.17 29.17a20.627 20.627 0 0035.212-14.585z"/>
  <path fill="#efeff4" d="M56.242 23.411a35.02 35.02 0 00-7.284-8.365c-2.63-2.117-5.822-3.8-9.33-3.8-9.242 0-16.314 11.668-16.611 12.165l-.575.961.575.961a35 35 0 007.28 8.369c2.631 2.113 5.823 3.8 9.331 3.8 9.242 0 16.314-11.668 16.611-12.165l.575-.961z"/>
  <path fill="#dadae5" d="M56.238 25.334l.575-.961-.575-.961a35.02 35.02 0 00-7.28-8.37L30.297 33.703c2.631 2.113 5.823 3.8 9.331 3.8 9.242 0 16.314-11.668 16.611-12.165z"/>
  <path fill="#64e1dc" d="M43.602 20.397a5.623 5.623 0 101.649 3.976 5.607 5.607 0 00-1.649-3.976z"/>
  <path fill="#00c8c8" d="M45.252 24.372a5.608 5.608 0 00-1.648-3.976l-7.952 7.952a5.623 5.623 0 009.6-3.976z"/>
  <path fill="#676e74" d="M40.953 23.046a1.875 1.875 0 10.55 1.326 1.869 1.869 0 00-.55-1.326z"/>
  <path fill="#474f54" d="M41.502 24.372a1.871 1.871 0 00-.549-1.326l-2.651 2.651a1.875 1.875 0 003.2-1.325z"/>
  <path fill="#575c60" d="M20.333 43.667l-3.957-3.957L0 56.049l3.975 3.976L7.951 64l16.376-16.339z"/>
  <path fill="#333637" d="M24.327 47.661l-3.994-3.994L3.975 60.025 7.951 64z"/>
</svg>