<svg xmlns="http://www.w3.org/2000/svg" viewBox="0 0 64 64">
  <defs/>
  <path fill="#474f54" d="M64 0v41.25l-3.75 3.875H3.75L0 41.25V0z"/>
  <path fill="#32393f" d="M64 0v41.25l-3.75 3.875H32V0z"/>
  <path fill="#dadae5" d="M22.625 50.875h18.75v11.25h-18.75z"/>
  <path fill="#c9c9d3" d="M32 50.875h9.375v11.25H32z"/>
  <path fill="#efeff4" d="M0 41.25h64v11.5H0z"/>
  <path fill="#dadae5" d="M32 41.25h32v11.5H32z"/>
  <path fill="#efeff4" d="M15.125 60.25h33.75V64h-33.75z"/>
  <path fill="#dadae5" d="M32 60.25h16.875V64H32z"/>
  <path fill="#549ef2" d="M7.625 20.625A13.125 13.125 0 1120.75 33.75 13.141 13.141 0 017.625 20.625z"/>
  <path fill="#377fd2" d="M45.125 7.5H56.5v3.75H45.125zM37.625 7.5h3.75v3.75h-3.75zM45.125 22.5H56.5v3.75H45.125zM37.625 22.5h3.75v3.75h-3.75zM37.625 15H56.5v3.75H37.625zM37.625 30H56.5v3.75H37.625z"/>
</svg>